<?xml version="1.0" encoding="UTF-8" standalone="no"?>
<!DOCTYPE svg PUBLIC "-//W3C//DTD SVG 1.1//EN" "http://www.w3.org/Graphics/SVG/1.1/DTD/svg11.dtd">
<svg width="100%" height="100%" viewBox="0 0 1800 600" version="1.1" xmlns="http://www.w3.org/2000/svg" xmlns:xlink="http://www.w3.org/1999/xlink" xml:space="preserve" xmlns:serif="http://www.serif.com/" style="fill-rule:evenodd;clip-rule:evenodd;stroke-linejoin:round;stroke-miterlimit:2;">
    <g transform="matrix(1,0,0,1,0,-1400)">
        <g id="Transparent" transform="matrix(1,0,0,1,0,1400)">
            <rect x="0" y="0" width="1800" height="600" style="fill:none;"/>
            <g transform="matrix(406.273,-362.682,-362.682,-406.273,134.105,506.937)">
                <path d="M0.912,0.312C0.911,0.312 0.91,0.312 0.909,0.312C0.899,0.312 0.889,0.311 0.88,0.31C0.854,0.307 0.83,0.3 0.806,0.29C0.783,0.281 0.761,0.27 0.739,0.258C0.715,0.244 0.69,0.23 0.667,0.214C0.645,0.199 0.625,0.183 0.605,0.164C0.583,0.143 0.564,0.119 0.549,0.092C0.543,0.083 0.539,0.074 0.535,0.064C0.534,0.063 0.534,0.062 0.533,0.061C0.532,0.063 0.532,0.064 0.532,0.065C0.531,0.071 0.53,0.077 0.529,0.083C0.527,0.089 0.525,0.095 0.522,0.101C0.52,0.106 0.518,0.11 0.515,0.114C0.515,0.114 0.515,0.114 0.515,0.115C0.516,0.116 0.517,0.117 0.517,0.118C0.516,0.119 0.515,0.12 0.514,0.121C0.514,0.122 0.514,0.122 0.515,0.122C0.517,0.126 0.518,0.129 0.519,0.133C0.519,0.134 0.518,0.135 0.518,0.135C0.517,0.138 0.515,0.14 0.513,0.142C0.513,0.143 0.513,0.144 0.514,0.144C0.514,0.145 0.514,0.146 0.515,0.147C0.514,0.148 0.514,0.148 0.513,0.149C0.513,0.15 0.513,0.15 0.513,0.151C0.527,0.184 0.547,0.213 0.576,0.235C0.577,0.237 0.579,0.237 0.581,0.238C0.591,0.242 0.6,0.248 0.607,0.255C0.611,0.259 0.614,0.262 0.616,0.267C0.615,0.267 0.615,0.266 0.615,0.266C0.602,0.264 0.592,0.258 0.583,0.249C0.581,0.248 0.58,0.246 0.578,0.244C0.576,0.242 0.574,0.24 0.572,0.238C0.544,0.213 0.522,0.184 0.508,0.149C0.508,0.148 0.507,0.147 0.507,0.147C0.507,0.146 0.507,0.146 0.507,0.146C0.503,0.146 0.499,0.146 0.495,0.147C0.495,0.147 0.495,0.148 0.494,0.149C0.483,0.177 0.467,0.201 0.446,0.223C0.441,0.229 0.435,0.234 0.428,0.24C0.427,0.241 0.426,0.242 0.425,0.243C0.418,0.251 0.41,0.258 0.401,0.262C0.396,0.264 0.391,0.266 0.386,0.267C0.39,0.26 0.394,0.255 0.4,0.25C0.406,0.245 0.413,0.241 0.421,0.238C0.423,0.237 0.425,0.236 0.426,0.235C0.447,0.219 0.464,0.199 0.477,0.175C0.481,0.168 0.485,0.161 0.488,0.153C0.488,0.152 0.489,0.151 0.489,0.15C0.488,0.15 0.488,0.149 0.487,0.149C0.487,0.149 0.487,0.149 0.487,0.148L0.489,0.144C0.488,0.143 0.487,0.142 0.487,0.142C0.484,0.14 0.482,0.137 0.481,0.133C0.481,0.129 0.483,0.126 0.485,0.123C0.486,0.123 0.486,0.123 0.487,0.122C0.486,0.121 0.486,0.121 0.485,0.12C0.485,0.12 0.484,0.119 0.483,0.118C0.484,0.117 0.484,0.116 0.485,0.116C0.485,0.115 0.486,0.115 0.486,0.114C0.486,0.114 0.485,0.113 0.485,0.113C0.482,0.11 0.48,0.107 0.478,0.104C0.476,0.099 0.474,0.093 0.473,0.087C0.471,0.08 0.47,0.074 0.469,0.067C0.469,0.065 0.469,0.063 0.468,0.062C0.468,0.063 0.467,0.063 0.467,0.064C0.455,0.091 0.44,0.116 0.42,0.139C0.406,0.156 0.39,0.171 0.373,0.185C0.357,0.199 0.34,0.212 0.322,0.223C0.293,0.242 0.264,0.259 0.234,0.274C0.214,0.283 0.194,0.292 0.174,0.299C0.16,0.304 0.146,0.307 0.132,0.31C0.125,0.311 0.118,0.312 0.111,0.312C0.11,0.312 0.109,0.312 0.109,0.313C0.108,0.313 0.108,0.313 0.108,0.313C0.103,0.313 0.097,0.313 0.092,0.313C0.077,0.311 0.063,0.307 0.049,0.3C0.043,0.298 0.038,0.294 0.033,0.29C0.024,0.281 0.02,0.271 0.018,0.26C0.018,0.258 0.018,0.257 0.017,0.256C0.017,0.252 0.017,0.248 0.017,0.244C0.017,0.244 0.018,0.243 0.018,0.241C0.019,0.227 0.023,0.214 0.029,0.201C0.033,0.189 0.038,0.178 0.044,0.167C0.049,0.155 0.055,0.144 0.061,0.132C0.067,0.12 0.07,0.108 0.073,0.095C0.074,0.086 0.075,0.076 0.076,0.066C0.077,0.055 0.079,0.044 0.081,0.033C0.087,0.007 0.099,-0.014 0.12,-0.03C0.133,-0.04 0.148,-0.047 0.166,-0.049C0.175,-0.051 0.185,-0.051 0.194,-0.049C0.196,-0.049 0.197,-0.049 0.198,-0.048C0.198,-0.049 0.198,-0.049 0.198,-0.049C0.198,-0.049 0.198,-0.049 0.199,-0.049C0.199,-0.049 0.198,-0.049 0.198,-0.048C0.198,-0.048 0.198,-0.048 0.199,-0.048C0.199,-0.048 0.199,-0.049 0.199,-0.049C0.199,-0.049 0.199,-0.049 0.198,-0.049C0.198,-0.049 0.198,-0.049 0.198,-0.049C0.197,-0.05 0.197,-0.05 0.196,-0.051L0.179,-0.062C0.179,-0.062 0.179,-0.062 0.178,-0.062C0.168,-0.07 0.158,-0.078 0.149,-0.087C0.141,-0.095 0.138,-0.105 0.136,-0.117C0.134,-0.127 0.134,-0.136 0.135,-0.146C0.138,-0.165 0.144,-0.182 0.152,-0.199C0.165,-0.228 0.182,-0.254 0.203,-0.277C0.214,-0.29 0.226,-0.301 0.239,-0.312C0.247,-0.318 0.256,-0.324 0.266,-0.329C0.27,-0.331 0.274,-0.332 0.279,-0.334C0.282,-0.335 0.285,-0.335 0.289,-0.335C0.299,-0.335 0.309,-0.333 0.319,-0.33C0.337,-0.325 0.354,-0.315 0.369,-0.303C0.381,-0.294 0.392,-0.284 0.402,-0.272C0.421,-0.249 0.439,-0.224 0.456,-0.198C0.466,-0.182 0.475,-0.165 0.482,-0.146L0.485,-0.137C0.486,-0.137 0.486,-0.137 0.486,-0.138C0.486,-0.138 0.486,-0.139 0.486,-0.14C0.487,-0.157 0.488,-0.174 0.489,-0.191C0.489,-0.203 0.49,-0.215 0.491,-0.227C0.491,-0.232 0.492,-0.236 0.492,-0.24C0.492,-0.244 0.493,-0.247 0.495,-0.249C0.496,-0.253 0.5,-0.254 0.503,-0.253C0.505,-0.252 0.506,-0.251 0.507,-0.25C0.508,-0.248 0.508,-0.247 0.509,-0.246C0.509,-0.241 0.51,-0.236 0.511,-0.231C0.513,-0.212 0.513,-0.193 0.514,-0.173L0.514,-0.136C0.515,-0.136 0.516,-0.136 0.516,-0.137C0.525,-0.165 0.54,-0.191 0.556,-0.215C0.569,-0.234 0.582,-0.252 0.596,-0.27C0.609,-0.285 0.623,-0.299 0.639,-0.31C0.654,-0.32 0.669,-0.328 0.687,-0.332C0.692,-0.334 0.697,-0.334 0.703,-0.335C0.704,-0.336 0.705,-0.336 0.705,-0.336C0.71,-0.336 0.714,-0.336 0.718,-0.336C0.719,-0.336 0.719,-0.335 0.72,-0.335C0.731,-0.332 0.741,-0.327 0.75,-0.322C0.759,-0.315 0.768,-0.308 0.777,-0.3C0.808,-0.271 0.833,-0.236 0.851,-0.197C0.857,-0.184 0.861,-0.171 0.864,-0.158C0.866,-0.147 0.867,-0.137 0.866,-0.126C0.866,-0.114 0.862,-0.103 0.855,-0.093C0.853,-0.09 0.85,-0.088 0.847,-0.085C0.836,-0.074 0.824,-0.064 0.811,-0.055C0.809,-0.054 0.806,-0.052 0.804,-0.051C0.803,-0.051 0.803,-0.05 0.802,-0.049C0.805,-0.05 0.808,-0.05 0.81,-0.05C0.836,-0.053 0.86,-0.047 0.881,-0.031C0.901,-0.016 0.914,0.005 0.92,0.03C0.922,0.039 0.923,0.048 0.924,0.057C0.925,0.069 0.927,0.081 0.928,0.092C0.93,0.106 0.934,0.119 0.94,0.132C0.946,0.142 0.951,0.153 0.957,0.164C0.963,0.178 0.97,0.191 0.975,0.205C0.978,0.214 0.981,0.223 0.982,0.233C0.983,0.235 0.983,0.237 0.983,0.239C0.983,0.24 0.983,0.241 0.983,0.242C0.983,0.247 0.983,0.251 0.983,0.256C0.983,0.257 0.983,0.258 0.983,0.259C0.982,0.268 0.979,0.276 0.973,0.283C0.969,0.289 0.964,0.293 0.957,0.297C0.949,0.301 0.94,0.305 0.931,0.307C0.929,0.308 0.926,0.309 0.924,0.309C0.92,0.31 0.916,0.311 0.912,0.312ZM0.179,-0.062L0.179,-0.062L0.179,-0.062L0.179,-0.062L0.179,-0.062Z" style="fill:rgb(208,83,71);fill-rule:nonzero;"/>
            </g>
            <g transform="matrix(1,0,0,1,-88,-34)">
                <g transform="matrix(288,0,0,288,705,413)">
                    <path d="M0.238,-0.735C0.267,-0.735 0.296,-0.735 0.327,-0.736C0.358,-0.736 0.387,-0.734 0.415,-0.73C0.427,-0.728 0.434,-0.721 0.436,-0.711C0.438,-0.7 0.439,-0.689 0.439,-0.68C0.439,-0.658 0.436,-0.644 0.43,-0.637C0.423,-0.63 0.416,-0.625 0.409,-0.623C0.402,-0.621 0.395,-0.619 0.389,-0.617C0.382,-0.615 0.379,-0.608 0.379,-0.597C0.379,-0.594 0.381,-0.586 0.385,-0.575C0.388,-0.564 0.393,-0.55 0.398,-0.535C0.403,-0.519 0.409,-0.502 0.416,-0.485C0.423,-0.467 0.429,-0.45 0.435,-0.434C0.441,-0.417 0.447,-0.403 0.452,-0.39C0.457,-0.377 0.461,-0.369 0.463,-0.364C0.464,-0.361 0.466,-0.356 0.469,-0.349C0.472,-0.342 0.475,-0.334 0.478,-0.327C0.481,-0.319 0.485,-0.312 0.489,-0.307C0.492,-0.301 0.496,-0.298 0.499,-0.298C0.502,-0.298 0.507,-0.305 0.515,-0.318C0.522,-0.331 0.531,-0.347 0.541,-0.368C0.55,-0.388 0.56,-0.41 0.571,-0.434C0.581,-0.458 0.59,-0.481 0.599,-0.503C0.608,-0.524 0.615,-0.543 0.621,-0.56C0.626,-0.577 0.629,-0.587 0.629,-0.592C0.629,-0.6 0.626,-0.606 0.619,-0.611C0.612,-0.616 0.604,-0.62 0.596,-0.623C0.588,-0.626 0.58,-0.628 0.574,-0.632C0.567,-0.635 0.563,-0.639 0.563,-0.645C0.563,-0.657 0.563,-0.668 0.564,-0.679C0.565,-0.69 0.567,-0.699 0.57,-0.708C0.573,-0.717 0.579,-0.724 0.587,-0.729C0.594,-0.733 0.605,-0.736 0.619,-0.736C0.644,-0.736 0.67,-0.735 0.696,-0.732C0.721,-0.729 0.747,-0.727 0.772,-0.727C0.796,-0.727 0.82,-0.728 0.844,-0.729C0.868,-0.729 0.892,-0.73 0.916,-0.73C0.931,-0.73 0.944,-0.729 0.953,-0.727C0.962,-0.725 0.969,-0.721 0.974,-0.717C0.979,-0.712 0.982,-0.704 0.983,-0.695C0.984,-0.685 0.985,-0.673 0.985,-0.658C0.985,-0.648 0.983,-0.641 0.978,-0.637C0.973,-0.633 0.967,-0.63 0.961,-0.628C0.954,-0.626 0.946,-0.624 0.938,-0.623C0.93,-0.622 0.923,-0.619 0.916,-0.615C0.909,-0.61 0.903,-0.604 0.898,-0.595C0.893,-0.586 0.891,-0.574 0.891,-0.558C0.891,-0.549 0.891,-0.535 0.892,-0.517C0.892,-0.498 0.892,-0.478 0.893,-0.455C0.894,-0.432 0.894,-0.408 0.895,-0.384C0.895,-0.359 0.895,-0.336 0.895,-0.315C0.895,-0.294 0.895,-0.275 0.895,-0.26C0.894,-0.244 0.893,-0.234 0.892,-0.229C0.893,-0.227 0.894,-0.223 0.895,-0.218C0.895,-0.213 0.895,-0.207 0.895,-0.2C0.894,-0.193 0.894,-0.187 0.894,-0.181C0.893,-0.175 0.893,-0.171 0.893,-0.168C0.893,-0.151 0.895,-0.138 0.9,-0.131C0.905,-0.124 0.911,-0.119 0.918,-0.116C0.925,-0.113 0.932,-0.112 0.94,-0.111C0.948,-0.11 0.956,-0.109 0.963,-0.106C0.97,-0.102 0.975,-0.097 0.98,-0.089C0.985,-0.081 0.987,-0.068 0.987,-0.05C0.987,-0.035 0.984,-0.023 0.978,-0.014C0.972,-0.005 0.96,0 0.943,0C0.928,0 0.912,-0.001 0.897,-0.002C0.881,-0.003 0.865,-0.004 0.85,-0.004L0.709,-0.004C0.698,-0.004 0.689,-0.005 0.682,-0.007C0.675,-0.008 0.671,-0.011 0.668,-0.015C0.665,-0.019 0.663,-0.025 0.662,-0.032C0.661,-0.039 0.661,-0.047 0.661,-0.058C0.661,-0.077 0.663,-0.089 0.668,-0.096C0.672,-0.102 0.677,-0.106 0.684,-0.107C0.69,-0.108 0.697,-0.108 0.704,-0.108C0.711,-0.108 0.718,-0.111 0.725,-0.116C0.731,-0.121 0.736,-0.132 0.741,-0.147C0.745,-0.162 0.747,-0.186 0.747,-0.217C0.747,-0.256 0.748,-0.295 0.75,-0.334C0.752,-0.372 0.753,-0.41 0.753,-0.449L0.753,-0.477C0.753,-0.491 0.752,-0.504 0.751,-0.515C0.75,-0.526 0.748,-0.533 0.745,-0.535C0.744,-0.536 0.742,-0.537 0.741,-0.537C0.74,-0.536 0.738,-0.536 0.737,-0.536C0.732,-0.536 0.728,-0.533 0.727,-0.527C0.706,-0.486 0.689,-0.444 0.674,-0.401C0.659,-0.358 0.644,-0.316 0.63,-0.273C0.616,-0.23 0.601,-0.187 0.586,-0.144C0.571,-0.101 0.553,-0.06 0.532,-0.019L0.52,-0.007C0.515,-0.008 0.51,-0.007 0.505,-0.006C0.5,-0.004 0.494,-0.003 0.489,-0.003C0.482,-0.003 0.475,-0.004 0.468,-0.006C0.46,-0.007 0.454,-0.01 0.448,-0.013C0.446,-0.014 0.44,-0.026 0.432,-0.049C0.423,-0.071 0.411,-0.099 0.399,-0.133C0.386,-0.167 0.371,-0.204 0.356,-0.245C0.34,-0.285 0.325,-0.323 0.311,-0.361C0.296,-0.398 0.283,-0.43 0.272,-0.459C0.261,-0.488 0.252,-0.507 0.247,-0.517L0.232,-0.517L0.235,-0.511L0.232,-0.514C0.225,-0.475 0.222,-0.434 0.224,-0.393C0.225,-0.352 0.226,-0.311 0.226,-0.271L0.226,-0.244C0.226,-0.232 0.226,-0.219 0.227,-0.206C0.227,-0.193 0.227,-0.18 0.228,-0.169C0.229,-0.158 0.23,-0.15 0.232,-0.145C0.238,-0.13 0.246,-0.12 0.256,-0.116C0.266,-0.112 0.276,-0.109 0.286,-0.107C0.296,-0.105 0.305,-0.101 0.312,-0.096C0.319,-0.09 0.322,-0.078 0.322,-0.059C0.322,-0.044 0.319,-0.031 0.313,-0.019C0.309,-0.012 0.305,-0.008 0.301,-0.009C0.297,-0.009 0.292,-0.009 0.287,-0.009C0.263,-0.009 0.239,-0.008 0.215,-0.006C0.191,-0.003 0.167,-0.002 0.143,-0.002L0.12,-0.002C0.11,-0.002 0.1,-0.002 0.089,-0.003C0.078,-0.004 0.068,-0.005 0.059,-0.006C0.049,-0.007 0.042,-0.008 0.037,-0.01L0.031,-0.019C0.029,-0.024 0.027,-0.029 0.026,-0.034C0.025,-0.039 0.024,-0.044 0.024,-0.049C0.024,-0.071 0.027,-0.086 0.033,-0.094C0.039,-0.102 0.046,-0.107 0.055,-0.11C0.064,-0.112 0.073,-0.113 0.082,-0.114C0.091,-0.115 0.099,-0.118 0.106,-0.124C0.111,-0.129 0.114,-0.135 0.116,-0.142C0.118,-0.149 0.119,-0.156 0.119,-0.164C0.119,-0.172 0.119,-0.18 0.118,-0.188C0.117,-0.195 0.117,-0.202 0.117,-0.208C0.117,-0.227 0.118,-0.247 0.121,-0.267C0.123,-0.286 0.124,-0.306 0.124,-0.325L0.124,-0.532C0.124,-0.541 0.124,-0.551 0.123,-0.561C0.122,-0.571 0.12,-0.581 0.118,-0.59C0.116,-0.599 0.113,-0.607 0.109,-0.613C0.105,-0.62 0.099,-0.624 0.091,-0.626C0.083,-0.628 0.075,-0.63 0.067,-0.632C0.059,-0.633 0.052,-0.636 0.046,-0.64C0.04,-0.644 0.037,-0.651 0.037,-0.661C0.037,-0.67 0.038,-0.678 0.039,-0.687C0.04,-0.696 0.042,-0.704 0.045,-0.711C0.048,-0.717 0.052,-0.723 0.059,-0.728C0.065,-0.732 0.074,-0.734 0.085,-0.734L0.238,-0.735Z" style="fill:rgb(95,97,166);fill-rule:nonzero;"/>
                </g>
                <g transform="matrix(288,0,0,288,993.864,413)">
                    <path d="M0.489,-0.039C0.489,-0.03 0.487,-0.023 0.483,-0.018C0.479,-0.013 0.474,-0.009 0.468,-0.006C0.462,-0.003 0.455,-0.002 0.448,-0.002C0.44,-0.001 0.433,-0.001 0.426,-0.001L0.375,-0.002C0.365,-0.002 0.357,-0.003 0.35,-0.006C0.343,-0.009 0.337,-0.012 0.332,-0.015C0.327,-0.017 0.322,-0.02 0.317,-0.023C0.312,-0.026 0.306,-0.027 0.299,-0.027C0.287,-0.027 0.275,-0.025 0.263,-0.022C0.251,-0.018 0.239,-0.014 0.227,-0.009C0.215,-0.004 0.203,0 0.19,0.004C0.177,0.007 0.164,0.009 0.151,0.009C0.134,0.009 0.118,0.007 0.103,0.002C0.087,-0.003 0.073,-0.01 0.061,-0.019C0.048,-0.028 0.038,-0.039 0.031,-0.053C0.024,-0.066 0.02,-0.082 0.02,-0.101C0.02,-0.128 0.027,-0.151 0.041,-0.17C0.054,-0.188 0.071,-0.203 0.092,-0.216C0.112,-0.228 0.134,-0.238 0.158,-0.246C0.182,-0.254 0.204,-0.261 0.225,-0.268C0.245,-0.274 0.262,-0.28 0.276,-0.286C0.289,-0.292 0.296,-0.3 0.296,-0.309C0.296,-0.323 0.29,-0.334 0.279,-0.342C0.268,-0.35 0.256,-0.354 0.243,-0.354C0.228,-0.354 0.215,-0.351 0.202,-0.344C0.189,-0.337 0.176,-0.33 0.165,-0.322C0.154,-0.313 0.143,-0.306 0.133,-0.299C0.123,-0.292 0.114,-0.289 0.105,-0.289C0.1,-0.289 0.094,-0.291 0.089,-0.295C0.083,-0.299 0.078,-0.304 0.073,-0.31C0.068,-0.316 0.063,-0.322 0.06,-0.329C0.057,-0.336 0.055,-0.341 0.055,-0.346C0.055,-0.359 0.063,-0.373 0.078,-0.387C0.093,-0.401 0.112,-0.414 0.133,-0.426C0.154,-0.437 0.175,-0.447 0.196,-0.455C0.217,-0.462 0.234,-0.466 0.246,-0.466C0.262,-0.466 0.28,-0.465 0.301,-0.464C0.321,-0.462 0.34,-0.458 0.358,-0.452C0.376,-0.445 0.391,-0.436 0.403,-0.423C0.415,-0.41 0.421,-0.393 0.421,-0.371C0.421,-0.335 0.422,-0.299 0.425,-0.263C0.427,-0.227 0.428,-0.191 0.428,-0.155C0.428,-0.136 0.431,-0.122 0.438,-0.115C0.444,-0.107 0.451,-0.1 0.459,-0.095C0.466,-0.09 0.473,-0.083 0.48,-0.076C0.486,-0.069 0.489,-0.056 0.489,-0.039ZM0.162,-0.124C0.162,-0.113 0.167,-0.104 0.178,-0.099C0.188,-0.093 0.198,-0.09 0.207,-0.09C0.216,-0.09 0.225,-0.092 0.236,-0.096C0.247,-0.1 0.257,-0.105 0.266,-0.112C0.275,-0.119 0.282,-0.126 0.288,-0.135C0.294,-0.144 0.297,-0.153 0.297,-0.163C0.297,-0.171 0.296,-0.178 0.293,-0.183C0.29,-0.188 0.284,-0.19 0.275,-0.19C0.267,-0.19 0.257,-0.188 0.244,-0.185C0.231,-0.182 0.219,-0.177 0.207,-0.171C0.195,-0.165 0.185,-0.158 0.176,-0.15C0.167,-0.142 0.162,-0.133 0.162,-0.124Z" style="fill:rgb(95,97,166);fill-rule:nonzero;"/>
                </g>
                <g transform="matrix(288,0,0,288,1140.46,413)">
                    <path d="M0.182,-0.653C0.19,-0.653 0.196,-0.651 0.201,-0.648C0.205,-0.645 0.208,-0.64 0.211,-0.635C0.214,-0.629 0.215,-0.623 0.216,-0.617C0.217,-0.61 0.217,-0.604 0.217,-0.598L0.217,-0.567C0.217,-0.556 0.216,-0.546 0.215,-0.537C0.214,-0.53 0.209,-0.522 0.2,-0.514C0.191,-0.506 0.18,-0.499 0.168,-0.492C0.156,-0.485 0.144,-0.48 0.132,-0.476C0.119,-0.471 0.11,-0.469 0.103,-0.469C0.097,-0.469 0.092,-0.472 0.089,-0.477C0.085,-0.482 0.082,-0.487 0.081,-0.494C0.08,-0.501 0.079,-0.507 0.079,-0.515C0.078,-0.522 0.078,-0.527 0.078,-0.531L0.078,-0.569C0.078,-0.579 0.08,-0.588 0.083,-0.596C0.086,-0.603 0.091,-0.61 0.098,-0.616C0.105,-0.621 0.116,-0.627 0.131,-0.633C0.138,-0.636 0.146,-0.64 0.157,-0.645C0.167,-0.65 0.175,-0.653 0.182,-0.653ZM0.241,-0.455C0.246,-0.455 0.252,-0.452 0.257,-0.447C0.261,-0.444 0.264,-0.441 0.265,-0.437C0.266,-0.432 0.266,-0.428 0.266,-0.423C0.266,-0.409 0.265,-0.398 0.262,-0.39C0.259,-0.382 0.256,-0.375 0.252,-0.37C0.248,-0.365 0.244,-0.36 0.239,-0.355C0.234,-0.35 0.23,-0.344 0.226,-0.337C0.222,-0.33 0.219,-0.32 0.216,-0.308C0.213,-0.296 0.212,-0.28 0.212,-0.261L0.212,-0.187C0.212,-0.175 0.212,-0.164 0.213,-0.152C0.214,-0.14 0.215,-0.129 0.217,-0.119C0.218,-0.109 0.221,-0.102 0.224,-0.099C0.23,-0.093 0.236,-0.089 0.241,-0.088C0.246,-0.087 0.251,-0.085 0.255,-0.083C0.259,-0.081 0.262,-0.078 0.264,-0.073C0.266,-0.068 0.267,-0.058 0.267,-0.044C0.267,-0.033 0.266,-0.024 0.264,-0.016C0.261,-0.008 0.254,-0.003 0.242,0C0.223,0.003 0.202,0.006 0.181,0.007C0.16,0.008 0.139,0.008 0.12,0.008C0.113,0.008 0.105,0.008 0.095,0.008C0.085,0.007 0.075,0.006 0.066,0.004C0.057,0.001 0.049,-0.003 0.042,-0.008C0.035,-0.013 0.032,-0.021 0.032,-0.03C0.032,-0.051 0.035,-0.065 0.04,-0.073C0.045,-0.08 0.051,-0.086 0.058,-0.089C0.064,-0.092 0.07,-0.095 0.075,-0.099C0.08,-0.101 0.083,-0.109 0.083,-0.12C0.083,-0.139 0.083,-0.159 0.082,-0.179C0.081,-0.198 0.08,-0.218 0.08,-0.237C0.08,-0.251 0.077,-0.26 0.071,-0.264C0.064,-0.267 0.057,-0.27 0.05,-0.272C0.043,-0.274 0.036,-0.278 0.03,-0.283C0.023,-0.288 0.02,-0.298 0.02,-0.315C0.02,-0.32 0.02,-0.326 0.021,-0.332C0.021,-0.337 0.023,-0.343 0.026,-0.348C0.027,-0.35 0.033,-0.354 0.043,-0.36C0.053,-0.366 0.066,-0.373 0.081,-0.381C0.096,-0.389 0.112,-0.397 0.13,-0.406C0.147,-0.415 0.164,-0.423 0.179,-0.43C0.194,-0.437 0.208,-0.443 0.219,-0.448C0.23,-0.453 0.238,-0.455 0.241,-0.455Z" style="fill:rgb(95,97,166);fill-rule:nonzero;"/>
                </g>
                <g transform="matrix(288,0,0,288,1223.11,413)">
                    <path d="M0.167,-0.726C0.173,-0.726 0.179,-0.724 0.186,-0.721C0.192,-0.718 0.198,-0.713 0.203,-0.709C0.208,-0.704 0.212,-0.698 0.215,-0.692C0.218,-0.685 0.22,-0.679 0.22,-0.673C0.22,-0.666 0.218,-0.659 0.213,-0.654C0.208,-0.649 0.202,-0.643 0.196,-0.638C0.19,-0.633 0.184,-0.627 0.179,-0.62C0.174,-0.612 0.171,-0.604 0.17,-0.593C0.168,-0.574 0.167,-0.555 0.167,-0.536L0.167,-0.479C0.167,-0.475 0.168,-0.47 0.171,-0.464C0.173,-0.458 0.177,-0.455 0.182,-0.455C0.198,-0.455 0.214,-0.458 0.229,-0.464C0.244,-0.47 0.259,-0.473 0.275,-0.473C0.31,-0.473 0.339,-0.467 0.364,-0.455C0.388,-0.443 0.408,-0.427 0.424,-0.406C0.439,-0.385 0.451,-0.36 0.458,-0.332C0.464,-0.304 0.468,-0.274 0.468,-0.243C0.468,-0.214 0.464,-0.184 0.457,-0.154C0.45,-0.124 0.438,-0.097 0.423,-0.072C0.407,-0.047 0.387,-0.027 0.363,-0.012C0.339,0.004 0.31,0.012 0.276,0.012C0.267,0.012 0.258,0.011 0.25,0.009C0.241,0.006 0.233,0.004 0.224,0.001C0.215,-0.003 0.207,-0.005 0.199,-0.008C0.19,-0.01 0.182,-0.011 0.173,-0.011C0.16,-0.011 0.147,-0.008 0.136,-0.004C0.124,0.002 0.111,0.004 0.098,0.004C0.081,0.004 0.068,0.001 0.06,-0.006C0.052,-0.012 0.047,-0.02 0.044,-0.03C0.041,-0.04 0.04,-0.051 0.041,-0.064C0.042,-0.077 0.042,-0.089 0.042,-0.101C0.042,-0.168 0.042,-0.235 0.041,-0.302C0.04,-0.369 0.039,-0.436 0.039,-0.503C0.039,-0.516 0.037,-0.525 0.034,-0.532C0.031,-0.538 0.027,-0.543 0.022,-0.546C0.017,-0.549 0.012,-0.551 0.006,-0.552C0,-0.553 -0.005,-0.555 -0.01,-0.558C-0.015,-0.56 -0.019,-0.564 -0.022,-0.57C-0.025,-0.575 -0.027,-0.584 -0.027,-0.596C-0.027,-0.607 -0.025,-0.616 -0.022,-0.623C-0.021,-0.624 -0.017,-0.628 -0.008,-0.634C0.002,-0.639 0.013,-0.646 0.026,-0.654C0.039,-0.661 0.053,-0.669 0.069,-0.678C0.084,-0.686 0.099,-0.694 0.113,-0.701C0.127,-0.708 0.139,-0.714 0.149,-0.719C0.159,-0.724 0.165,-0.726 0.167,-0.726ZM0.257,-0.359C0.242,-0.359 0.229,-0.356 0.218,-0.349C0.207,-0.342 0.197,-0.334 0.19,-0.323C0.183,-0.312 0.177,-0.299 0.174,-0.286C0.17,-0.272 0.168,-0.258 0.168,-0.245C0.168,-0.23 0.169,-0.215 0.172,-0.199C0.175,-0.182 0.179,-0.167 0.186,-0.154C0.193,-0.14 0.202,-0.129 0.214,-0.12C0.226,-0.111 0.241,-0.106 0.259,-0.106C0.274,-0.106 0.289,-0.109 0.302,-0.115C0.315,-0.121 0.326,-0.129 0.336,-0.139C0.345,-0.149 0.353,-0.161 0.358,-0.174C0.363,-0.187 0.366,-0.202 0.366,-0.217C0.366,-0.235 0.364,-0.253 0.361,-0.27C0.357,-0.286 0.351,-0.302 0.343,-0.315C0.334,-0.328 0.323,-0.339 0.309,-0.347C0.295,-0.355 0.278,-0.359 0.257,-0.359Z" style="fill:rgb(95,97,166);fill-rule:nonzero;"/>
                </g>
                <g transform="matrix(288,0,0,288,1363.08,413)">
                    <path d="M0.245,-0.475C0.264,-0.475 0.283,-0.472 0.304,-0.465C0.324,-0.458 0.342,-0.448 0.359,-0.435C0.375,-0.422 0.388,-0.407 0.399,-0.39C0.41,-0.372 0.415,-0.353 0.415,-0.332C0.415,-0.323 0.409,-0.314 0.398,-0.305C0.386,-0.296 0.371,-0.288 0.353,-0.279C0.335,-0.27 0.316,-0.262 0.296,-0.253C0.275,-0.244 0.256,-0.236 0.238,-0.228C0.22,-0.22 0.205,-0.212 0.194,-0.205C0.182,-0.197 0.176,-0.189 0.176,-0.182C0.176,-0.17 0.18,-0.159 0.189,-0.15C0.197,-0.141 0.207,-0.133 0.219,-0.127C0.23,-0.121 0.243,-0.117 0.256,-0.114C0.269,-0.111 0.281,-0.109 0.291,-0.109C0.3,-0.109 0.31,-0.111 0.32,-0.116C0.33,-0.12 0.339,-0.125 0.349,-0.13C0.358,-0.135 0.366,-0.14 0.373,-0.145C0.38,-0.149 0.386,-0.151 0.391,-0.151C0.403,-0.151 0.414,-0.146 0.425,-0.135C0.435,-0.124 0.44,-0.113 0.44,-0.101C0.44,-0.083 0.432,-0.067 0.415,-0.053C0.398,-0.038 0.379,-0.026 0.356,-0.017C0.333,-0.007 0.31,0 0.287,0.006C0.263,0.011 0.244,0.013 0.229,0.013C0.198,0.013 0.169,0.006 0.144,-0.008C0.118,-0.022 0.096,-0.04 0.077,-0.063C0.058,-0.086 0.044,-0.111 0.034,-0.14C0.023,-0.168 0.018,-0.197 0.018,-0.226C0.018,-0.257 0.024,-0.287 0.036,-0.317C0.047,-0.346 0.063,-0.373 0.084,-0.396C0.104,-0.419 0.128,-0.438 0.156,-0.453C0.183,-0.468 0.213,-0.475 0.245,-0.475ZM0.143,-0.296C0.143,-0.292 0.145,-0.289 0.149,-0.287C0.152,-0.284 0.156,-0.283 0.159,-0.283C0.164,-0.283 0.171,-0.285 0.182,-0.29C0.192,-0.294 0.203,-0.299 0.214,-0.306C0.225,-0.312 0.234,-0.318 0.243,-0.325C0.251,-0.332 0.255,-0.337 0.255,-0.342C0.25,-0.349 0.246,-0.355 0.241,-0.359C0.236,-0.362 0.229,-0.364 0.22,-0.364C0.212,-0.364 0.204,-0.362 0.195,-0.358C0.186,-0.354 0.177,-0.349 0.17,-0.343C0.162,-0.336 0.156,-0.329 0.151,-0.321C0.146,-0.313 0.143,-0.305 0.143,-0.296Z" style="fill:rgb(95,97,166);fill-rule:nonzero;"/>
                </g>
                <g transform="matrix(288,0,0,288,1496.14,413)">
                    <path d="M0.166,-0.448C0.175,-0.448 0.184,-0.447 0.194,-0.446C0.204,-0.444 0.211,-0.438 0.214,-0.429C0.217,-0.422 0.219,-0.415 0.22,-0.407C0.221,-0.399 0.226,-0.395 0.236,-0.395C0.241,-0.395 0.247,-0.398 0.255,-0.404C0.262,-0.409 0.271,-0.415 0.28,-0.422C0.289,-0.428 0.298,-0.434 0.308,-0.44C0.318,-0.445 0.328,-0.448 0.337,-0.448C0.342,-0.448 0.351,-0.443 0.362,-0.434C0.373,-0.425 0.383,-0.414 0.394,-0.402C0.405,-0.39 0.414,-0.378 0.422,-0.366C0.43,-0.354 0.434,-0.345 0.434,-0.34C0.434,-0.333 0.43,-0.324 0.423,-0.315C0.416,-0.305 0.407,-0.296 0.397,-0.287C0.386,-0.278 0.376,-0.271 0.365,-0.265C0.354,-0.259 0.344,-0.256 0.337,-0.256C0.33,-0.256 0.323,-0.259 0.316,-0.265C0.309,-0.27 0.303,-0.276 0.297,-0.283C0.291,-0.289 0.285,-0.295 0.28,-0.301C0.274,-0.306 0.268,-0.309 0.263,-0.309C0.258,-0.309 0.252,-0.307 0.247,-0.304C0.242,-0.301 0.237,-0.296 0.232,-0.291C0.227,-0.286 0.224,-0.28 0.221,-0.274C0.218,-0.268 0.217,-0.263 0.217,-0.258L0.217,-0.132C0.217,-0.116 0.22,-0.105 0.227,-0.1C0.233,-0.095 0.24,-0.09 0.248,-0.087C0.255,-0.084 0.262,-0.079 0.269,-0.072C0.275,-0.065 0.278,-0.053 0.278,-0.034C0.278,-0.019 0.273,-0.008 0.263,-0.001C0.252,0.007 0.24,0.01 0.226,0.01L0.072,0.01C0.053,0.01 0.041,0.004 0.036,-0.007C0.031,-0.018 0.029,-0.032 0.029,-0.048C0.029,-0.059 0.031,-0.066 0.034,-0.071C0.037,-0.076 0.04,-0.079 0.045,-0.082C0.05,-0.084 0.055,-0.086 0.061,-0.088C0.066,-0.09 0.071,-0.094 0.076,-0.099C0.081,-0.104 0.085,-0.112 0.088,-0.123C0.091,-0.133 0.092,-0.148 0.092,-0.167L0.093,-0.224C0.093,-0.232 0.093,-0.243 0.093,-0.257C0.092,-0.27 0.091,-0.281 0.088,-0.288C0.085,-0.298 0.079,-0.305 0.072,-0.309C0.064,-0.312 0.056,-0.315 0.049,-0.318C0.041,-0.321 0.034,-0.325 0.029,-0.33C0.023,-0.335 0.02,-0.343 0.02,-0.356C0.02,-0.371 0.025,-0.385 0.036,-0.397C0.047,-0.408 0.059,-0.418 0.075,-0.426C0.09,-0.433 0.105,-0.439 0.122,-0.443C0.139,-0.446 0.153,-0.448 0.166,-0.448Z" style="fill:rgb(95,97,166);fill-rule:nonzero;"/>
                </g>
                <g transform="matrix(288,0,0,288,1626.89,413)">
                    <path d="M0.095,-0.449C0.11,-0.449 0.126,-0.45 0.142,-0.452C0.157,-0.454 0.173,-0.455 0.189,-0.455C0.195,-0.455 0.203,-0.455 0.212,-0.454C0.221,-0.452 0.229,-0.451 0.238,-0.448C0.246,-0.444 0.253,-0.44 0.259,-0.435C0.265,-0.43 0.268,-0.423 0.268,-0.414C0.268,-0.399 0.265,-0.389 0.26,-0.382C0.254,-0.375 0.248,-0.369 0.241,-0.365C0.234,-0.361 0.228,-0.357 0.223,-0.354C0.217,-0.35 0.214,-0.344 0.214,-0.336C0.214,-0.329 0.216,-0.318 0.22,-0.303C0.223,-0.288 0.228,-0.272 0.234,-0.256C0.239,-0.239 0.245,-0.224 0.251,-0.21C0.257,-0.196 0.262,-0.187 0.267,-0.182C0.272,-0.182 0.279,-0.189 0.288,-0.203C0.297,-0.217 0.306,-0.233 0.315,-0.25C0.324,-0.267 0.331,-0.284 0.338,-0.301C0.345,-0.318 0.348,-0.329 0.348,-0.334C0.348,-0.341 0.346,-0.347 0.341,-0.351C0.335,-0.354 0.33,-0.358 0.324,-0.361C0.317,-0.364 0.312,-0.369 0.307,-0.374C0.302,-0.379 0.299,-0.386 0.299,-0.396C0.299,-0.401 0.3,-0.409 0.302,-0.418C0.304,-0.427 0.308,-0.434 0.313,-0.438C0.316,-0.444 0.321,-0.447 0.326,-0.447L0.341,-0.447C0.367,-0.447 0.393,-0.448 0.419,-0.45C0.445,-0.451 0.471,-0.452 0.497,-0.452C0.508,-0.452 0.519,-0.448 0.528,-0.439C0.537,-0.43 0.541,-0.42 0.541,-0.409C0.541,-0.398 0.54,-0.389 0.537,-0.383C0.534,-0.376 0.531,-0.371 0.527,-0.368C0.523,-0.365 0.518,-0.362 0.513,-0.36C0.508,-0.358 0.502,-0.356 0.497,-0.353C0.492,-0.349 0.487,-0.345 0.482,-0.34C0.476,-0.335 0.472,-0.327 0.468,-0.317C0.457,-0.286 0.444,-0.256 0.43,-0.227C0.416,-0.197 0.403,-0.167 0.391,-0.136C0.373,-0.087 0.354,-0.039 0.334,0.01C0.313,0.058 0.293,0.106 0.274,0.155C0.27,0.165 0.266,0.173 0.262,0.179C0.258,0.185 0.253,0.19 0.248,0.193C0.243,0.196 0.236,0.197 0.229,0.198C0.222,0.199 0.213,0.199 0.203,0.199L0.16,0.202C0.156,0.202 0.152,0.202 0.147,0.202C0.141,0.201 0.137,0.2 0.132,0.199C0.127,0.197 0.124,0.194 0.121,0.191C0.118,0.188 0.116,0.183 0.116,0.178C0.116,0.165 0.12,0.151 0.128,0.134C0.136,0.117 0.145,0.1 0.155,0.083C0.165,0.066 0.174,0.049 0.182,0.032C0.19,0.015 0.194,0 0.194,-0.013C0.194,-0.016 0.191,-0.026 0.186,-0.043C0.18,-0.06 0.172,-0.08 0.164,-0.104C0.155,-0.127 0.145,-0.153 0.135,-0.18C0.124,-0.207 0.114,-0.233 0.105,-0.257C0.096,-0.28 0.088,-0.3 0.081,-0.316C0.074,-0.332 0.069,-0.341 0.068,-0.343C0.061,-0.35 0.055,-0.354 0.049,-0.356C0.043,-0.358 0.038,-0.36 0.034,-0.363C0.029,-0.365 0.026,-0.369 0.023,-0.374C0.02,-0.379 0.019,-0.388 0.019,-0.401C0.019,-0.416 0.021,-0.426 0.025,-0.433C0.029,-0.44 0.034,-0.444 0.041,-0.447C0.048,-0.449 0.056,-0.45 0.065,-0.45C0.074,-0.449 0.084,-0.449 0.095,-0.449Z" style="fill:rgb(95,97,166);fill-rule:nonzero;"/>
                </g>
            </g>
            <g transform="matrix(1,0,0,1,21,2)">
                <path d="M687,397L613,397L577,433L651,433L687,397Z" style="fill:rgb(208,83,71);"/>
            </g>
            <g transform="matrix(1,0,0,1,131,2)">
                <path d="M687,397L613,397L577,433L651,433L687,397Z" style="fill:rgb(95,97,166);"/>
            </g>
            <g transform="matrix(1,0,0,1,241,2)">
                <path d="M687,397L613,397L577,433L651,433L687,397Z" style="fill:rgb(208,83,71);"/>
            </g>
            <g transform="matrix(1,0,0,1,351,2)">
                <path d="M687,397L613,397L577,433L651,433L687,397Z" style="fill:rgb(95,97,166);"/>
            </g>
            <g transform="matrix(1,0,0,1,461,2)">
                <path d="M687,397L613,397L577,433L651,433L687,397Z" style="fill:rgb(208,83,71);"/>
            </g>
            <g transform="matrix(1,0,0,1,571,2)">
                <path d="M687,397L613,397L577,433L651,433L687,397Z" style="fill:rgb(95,97,166);"/>
            </g>
            <g transform="matrix(1,0,0,1,681,2)">
                <path d="M687,397L613,397L577,433L651,433L687,397Z" style="fill:rgb(208,83,71);"/>
            </g>
            <g transform="matrix(1,0,0,1,791,2)">
                <path d="M687,397L613,397L577,433L651,433L687,397Z" style="fill:rgb(95,97,166);"/>
            </g>
        </g>
    </g>
</svg>
